<svg xmlns="http://www.w3.org/2000/svg" width="653" height="108" viewBox="0 0 653 108" fill="none"><path d="M36.992 96.28C26.496 96.28 18.3893 94.2747 12.672 90.264C6.95467 86.2533 4.096 80.5787 4.096 73.24V72.856H20.608V73.88C20.608 77.464 21.8453 79.896 24.32 81.176C26.7947 82.456 31.0613 83.096 37.12 83.096C42.752 83.096 46.5493 82.5413 48.512 81.432C50.4747 80.3227 51.456 78.5733 51.456 76.184C51.456 73.9653 50.688 72.4293 49.152 71.576C47.616 70.6373 44.8 69.912 40.704 69.4L22.912 67.096C16.6827 66.328 11.8187 64.5787 8.32 61.848C4.90667 59.032 3.2 54.936 3.2 49.56C3.2 45.8053 4.30933 42.4773 6.528 39.576C8.74667 36.5893 12.1173 34.2427 16.64 32.536C21.248 30.744 27.008 29.848 33.92 29.848C40.6613 29.848 46.4213 30.744 51.2 32.536C55.9787 34.2427 59.648 36.8027 62.208 40.216C64.768 43.6293 66.048 47.896 66.048 53.016V53.528H49.536V52.76C49.536 50.6267 49.0667 48.8347 48.128 47.384C47.2747 45.9333 45.696 44.8667 43.392 44.184C41.088 43.416 37.76 43.032 33.408 43.032C28.1173 43.032 24.448 43.5867 22.4 44.696C20.4373 45.8053 19.456 47.64 19.456 50.2C19.456 52.1627 20.224 53.656 21.76 54.68C23.296 55.6187 26.2827 56.3867 30.72 56.984L44.928 58.904C52.9493 59.8427 58.752 61.7627 62.336 64.664C65.92 67.48 67.712 71.5333 67.712 76.824C67.712 80.8347 66.432 84.2907 63.872 87.192C61.3973 90.0933 57.856 92.3547 53.248 93.976C48.7253 95.512 43.3067 96.28 36.992 96.28ZM109.918 96.28C102.75 96.28 96.4353 94.9147 90.974 92.184C85.598 89.4533 81.374 85.5707 78.302 80.536C75.3153 75.5013 73.822 69.6987 73.822 63.128C73.822 56.3867 75.3153 50.5413 78.302 45.592C81.374 40.6427 85.598 36.8027 90.974 34.072C96.4353 31.256 102.75 29.848 109.918 29.848C117.086 29.848 123.358 31.256 128.734 34.072C134.11 36.8027 138.291 40.6427 141.278 45.592C144.35 50.5413 145.886 56.3867 145.886 63.128C145.886 69.6987 144.35 75.5013 141.278 80.536C138.291 85.5707 134.11 89.4533 128.734 92.184C123.358 94.9147 117.086 96.28 109.918 96.28ZM109.918 81.688C117.001 81.688 122.035 80.152 125.022 77.08C128.009 73.9227 129.502 69.272 129.502 63.128C129.502 56.8987 128.009 52.248 125.022 49.176C122.035 46.0187 117.001 44.44 109.918 44.44C102.835 44.44 97.758 46.0187 94.686 49.176C91.6993 52.248 90.206 56.8987 90.206 63.128C90.206 69.272 91.6993 73.9227 94.686 77.08C97.758 80.152 102.835 81.688 109.918 81.688ZM187.912 96.28C180.829 96.28 174.6 94.9147 169.224 92.184C163.933 89.4533 159.795 85.5707 156.808 80.536C153.907 75.5013 152.456 69.6987 152.456 63.128C152.456 56.3867 153.907 50.5413 156.808 45.592C159.795 40.6427 163.933 36.8027 169.224 34.072C174.6 31.256 180.829 29.848 187.912 29.848C194.568 29.848 200.413 31 205.448 33.304C210.568 35.5227 214.536 38.68 217.352 42.776C220.253 46.7867 221.704 51.5227 221.704 56.984V58.52H205.32V57.624C205.32 53.1013 203.741 49.816 200.584 47.768C197.512 45.72 193.203 44.696 187.656 44.696C181.171 44.696 176.435 46.1893 173.448 49.176C170.461 52.0773 168.968 56.728 168.968 63.128C168.968 69.4427 170.461 74.0933 173.448 77.08C176.435 79.9813 181.171 81.432 187.656 81.432C193.203 81.432 197.512 80.408 200.584 78.36C203.741 76.312 205.32 73.0267 205.32 68.504V67.608H221.704V69.144C221.704 74.52 220.253 79.256 217.352 83.352C214.536 87.448 210.568 90.648 205.448 92.952C200.413 95.1707 194.568 96.28 187.912 96.28ZM247.522 95H231.01V31.128H247.522V95ZM247.522 24.088H231.01V9.24H247.522V24.088ZM321.474 95H306.114V79.128L305.218 78.872V56.856C305.218 52.0773 304.066 48.792 301.762 47C299.458 45.208 295.49 44.312 289.858 44.312C284.482 44.312 280.514 45.208 277.954 47C275.479 48.7067 274.242 51.6507 274.242 55.832V56.472H257.73V55.96C257.73 50.9253 259.053 46.4453 261.698 42.52C264.429 38.5947 268.269 35.5227 273.218 33.304C278.253 31 284.183 29.848 291.01 29.848C298.007 29.848 303.725 31 308.162 33.304C312.685 35.608 316.013 38.7653 318.146 42.776C320.365 46.7867 321.474 51.48 321.474 56.856V95ZM278.21 96.28C271.469 96.28 266.135 94.7867 262.21 91.8C258.285 88.8133 256.322 84.6747 256.322 79.384C256.322 76.1413 257.133 73.368 258.754 71.064C260.375 68.76 262.722 66.9253 265.794 65.56C268.866 64.1947 272.578 63.2987 276.93 62.872L306.498 59.8V69.4L281.538 72.216C278.637 72.472 276.461 73.0693 275.01 74.008C273.645 74.8613 272.962 76.312 272.962 78.36C272.962 80.408 273.73 81.944 275.266 82.968C276.887 83.992 279.405 84.504 282.818 84.504C287.511 84.504 291.522 83.992 294.85 82.968C298.178 81.8587 300.738 80.1947 302.53 77.976C304.322 75.672 305.218 72.6853 305.218 69.016H307.01V79.768H305.218C303.682 84.888 300.567 88.9413 295.874 91.928C291.266 94.8293 285.378 96.28 278.21 96.28ZM349.022 95H332.51V9.24H349.022V95ZM475.326 95H458.814V60.952C458.814 55.1493 457.619 51.0107 455.23 48.536C452.841 45.976 448.702 44.696 442.814 44.696C436.499 44.696 432.147 46.1893 429.758 49.176C427.369 52.0773 426.174 56.6853 426.174 63L423.742 63.128L422.59 50.84H425.79C426.387 47.1707 427.582 43.7573 429.374 40.6C431.166 37.4427 433.769 34.8827 437.182 32.92C440.681 30.872 445.161 29.848 450.622 29.848C456.169 29.848 460.734 31 464.318 33.304C467.987 35.5227 470.718 38.5947 472.51 42.52C474.387 46.4453 475.326 50.9253 475.326 55.96V95ZM377.022 95H360.51V31.128H375.742V51.096L377.022 51.736V95ZM426.174 95H409.662V60.952C409.662 55.1493 408.467 51.0107 406.078 48.536C403.689 45.976 399.55 44.696 393.662 44.696C387.347 44.696 382.995 46.1893 380.606 49.176C378.217 52.0773 377.022 56.6853 377.022 63L374.59 63.128L373.566 50.456H376.638C377.235 46.872 378.387 43.544 380.094 40.472C381.886 37.3147 384.446 34.7547 387.774 32.792C391.187 30.8293 395.539 29.848 400.83 29.848C406.462 29.848 411.027 31 414.526 33.304C418.11 35.608 420.755 38.7653 422.462 42.776C424.254 46.7013 425.15 51.096 425.15 55.96H426.174V95ZM502.897 95H486.385V31.128H502.897V95ZM502.897 24.088H486.385V9.24H502.897V24.088ZM530.897 95H514.385V9.24H530.897V95ZM612.273 95H592.817L575.409 70.424H551.473V55.576H575.281L592.945 31.128H612.401L588.721 61.848L612.273 95ZM558.897 95H542.385V9.24H558.897V95Z" fill="#172554"></path><circle cx="635" cy="77" r="18" fill="#40BFB9"></circle></svg>