<svg xmlns="http://www.w3.org/2000/svg" viewBox="0 0 750 500"><g id="freepik--background-simple--inject-2"><path d="M684,429.4s27-49,26-129-49-155-108-176-111,6-181,9-111-85-211-43-100,127-83,168,49,61,14,90-69,47-79,58a42.92,42.92,0,0,0-11,23Z" style="fill:#0284C7"></path><path d="M684,429.4s27-49,26-129-49-155-108-176-111,6-181,9-111-85-211-43-100,127-83,168,49,61,14,90-69,47-79,58a42.92,42.92,0,0,0-11,23Z" style="fill:#fff;opacity:0.7000000000000001"></path></g><g id="freepik--Coins--inject-2"><g style="opacity:0.2"><path d="M244,76.5A24.48,24.48,0,1,0,268.5,101,24.5,24.5,0,0,0,244,76.5Zm2.49,39.43v2.36h-4.15v-2.36c-3.65-.73-5.49-3.55-5.49-7.93v-2.21h4.8v2.53c0,2.31,1,3.14,2.63,3.14s2.63-.83,2.63-3.14c0-6.64-9.92-7-9.92-16.19,0-4.34,1.8-7.1,5.35-7.89v-2.4h4.15v2.4c3.6.74,5.44,3.51,5.44,7.89v1h-4.79V91.81c0-2.31-.93-3.19-2.54-3.19s-2.54.88-2.54,3.19c0,6.64,9.92,7,9.92,16.19C252,112.38,250.11,115.2,246.51,115.93Z" style="fill:none;stroke:#000;stroke-linecap:round;stroke-linejoin:round"></path><path d="M244,66.67a34.31,34.31,0,1,0,34.3,34.3A34.3,34.3,0,0,0,244,66.67Zm0,62.48A28.18,28.18,0,1,1,272.2,101,28.21,28.21,0,0,1,244,129.15Z" style="fill:none;stroke:#000;stroke-linecap:round;stroke-linejoin:round"></path></g><g style="opacity:0.2"><path d="M447.9,80.94a17.91,17.91,0,1,0,17.91,17.91A17.93,17.93,0,0,0,447.9,80.94Zm1.82,28.86v1.72h-3V109.8c-2.67-.54-4-2.6-4-5.81v-1.62h3.51v1.86c0,1.69.75,2.29,1.93,2.29s1.92-.6,1.92-2.29c0-4.86-7.26-5.1-7.26-11.85,0-3.17,1.32-5.2,3.92-5.77V84.85h3v1.76c2.63.54,4,2.56,4,5.77v.74h-3.51v-1c0-1.68-.67-2.33-1.86-2.33s-1.85.65-1.85,2.33c0,4.86,7.26,5.1,7.26,11.85C453.74,107.2,452.35,109.26,449.72,109.8Z" style="fill:none;stroke:#000;stroke-linecap:round;stroke-linejoin:round"></path><path d="M447.9,73.75A25.1,25.1,0,1,0,473,98.85,25.1,25.1,0,0,0,447.9,73.75Zm0,45.72a20.62,20.62,0,1,1,20.62-20.62A20.64,20.64,0,0,1,447.9,119.47Z" style="fill:none;stroke:#000;stroke-linecap:round;stroke-linejoin:round"></path></g><g style="opacity:0.2"><path d="M73.88,239.71a17.91,17.91,0,1,0,17.91,17.91A17.93,17.93,0,0,0,73.88,239.71Zm1.82,28.86v1.72h-3v-1.72c-2.67-.54-4-2.6-4-5.81v-1.62h3.51V263c0,1.69.74,2.3,1.93,2.3S76,264.69,76,263c0-4.86-7.26-5.1-7.26-11.85,0-3.17,1.32-5.2,3.92-5.77v-1.76h3v1.76c2.63.54,4,2.56,4,5.77v.74H76.17v-1c0-1.68-.68-2.32-1.86-2.32s-1.85.64-1.85,2.32c0,4.87,7.25,5.1,7.25,11.85C79.71,266,78.33,268,75.7,268.57Z" style="fill:none;stroke:#000;stroke-linecap:round;stroke-linejoin:round"></path><path d="M73.88,232.52A25.1,25.1,0,1,0,99,257.62,25.11,25.11,0,0,0,73.88,232.52Zm0,45.72A20.62,20.62,0,1,1,94.5,257.62,20.64,20.64,0,0,1,73.88,278.24Z" style="fill:none;stroke:#000;stroke-linecap:round;stroke-linejoin:round"></path></g><g style="opacity:0.2"><path d="M683.42,219.8a17.91,17.91,0,1,0,17.91,17.91A17.93,17.93,0,0,0,683.42,219.8Zm1.82,28.86v1.72h-3v-1.72c-2.66-.54-4-2.6-4-5.81v-1.62h3.51v1.86c0,1.68.74,2.29,1.92,2.29s1.92-.61,1.92-2.29c0-4.87-7.25-5.1-7.25-11.85,0-3.18,1.31-5.2,3.91-5.78v-1.75h3v1.75c2.63.54,4,2.57,4,5.78V232h-3.51v-1c0-1.69-.67-2.33-1.85-2.33S682,229.31,682,231c0,4.86,7.26,5.1,7.26,11.85C689.26,246.06,687.87,248.12,685.24,248.66Z" style="fill:none;stroke:#000;stroke-linecap:round;stroke-linejoin:round"></path><path d="M683.42,212.61a25.1,25.1,0,1,0,25.1,25.1A25.1,25.1,0,0,0,683.42,212.61Zm0,45.72A20.62,20.62,0,1,1,704,237.71,20.64,20.64,0,0,1,683.42,258.33Z" style="fill:none;stroke:#000;stroke-linecap:round;stroke-linejoin:round"></path></g></g><g id="freepik--Device--inject-2"><polygon points="342.84 201.5 661.18 201.5 619.98 429.9 301.64 429.9 342.84 201.5" style="fill:#fff;stroke:#263238;stroke-linecap:round;stroke-linejoin:round"></polygon><polygon points="654.81 201.5 635 311.34 616.71 412.75 613.61 429.91 295.28 429.91 326.04 259.38 336.48 201.5 654.81 201.5" style="fill:#263238;stroke:#263238;stroke-linecap:round;stroke-linejoin:round"></polygon><polygon points="345.17 208.66 643.54 208.66 604.92 422.74 306.55 422.74 345.17 208.66" style="fill:#0284C7;stroke:#263238;stroke-linecap:round;stroke-linejoin:round"></polygon><polygon points="309.57 406 306.55 422.74 604.92 422.74 607.94 406 309.57 406" style="fill:#bfbfbf;stroke:#263238;stroke-linecap:round;stroke-linejoin:round"></polygon><polygon points="634.7 208.66 596.08 422.74 604.92 422.74 643.54 208.66 634.7 208.66" style="fill:#bfbfbf;stroke:#263238;stroke-linecap:round;stroke-linejoin:round"></polygon><polygon points="629.5 286.46 637.01 244.81 628.18 244.81 620.66 286.46 629.5 286.46" style="fill:#a1a1a1;stroke:#263238;stroke-linecap:round;stroke-linejoin:round"></polygon><rect x="224.35" y="414.78" width="390.76" height="15.12" style="fill:#fff;stroke:#263238;stroke-linecap:round;stroke-linejoin:round"></rect><rect x="88.27" y="414.78" width="191.8" height="15.12" style="fill:#263238;stroke:#263238;stroke-linecap:round;stroke-linejoin:round"></rect><polygon points="342.44 223.78 640.81 223.78 643.54 208.66 345.17 208.66 342.44 223.78" style="fill:#bfbfbf;stroke:#263238;stroke-linecap:round;stroke-linejoin:round"></polygon><polygon points="361.22 219.07 503.34 219.07 504.64 211.86 362.52 211.86 361.22 219.07" style="fill:#fff;stroke:#263238;stroke-linecap:round;stroke-linejoin:round"></polygon></g><g id="freepik--Ads--inject-2"><polygon points="354.26 292.14 464.47 292.14 450.21 371.22 340 371.22 354.26 292.14" style="opacity:0.2"></polygon><polygon points="347.46 284.83 457.68 284.83 443.42 363.9 333.2 363.9 347.46 284.83" style="fill:#fff;stroke:#263238;stroke-linecap:round;stroke-linejoin:round"></polygon><polygon points="456.01 294.04 457.68 284.83 347.46 284.83 345.8 294.04 456.01 294.04" style="fill:#263238;stroke:#263238;stroke-linecap:round;stroke-linejoin:round"></polygon><path d="M451.57,289.64a2.73,2.73,0,1,1-2.72-2.72A2.72,2.72,0,0,1,451.57,289.64Z" style="fill:#fff;stroke:#263238;stroke-linecap:round;stroke-linejoin:round"></path><path d="M390.2,302.82c5.36.78,7.05,5.07,5.84,11.17l-.24,1.23h-4.74l.31-1.56c.79-4-.34-6.49-4-6.49s-5.68,2.47-6.47,6.49c-2,10.19,13.23,10.26,10.71,23-1.2,6.1-4.66,10.45-10.33,11.23l-.68,3.44h-4.15l.68-3.44c-5.49-.78-7.18-5.07-6-11.23l.55-2.79h4.74l-.61,3.11c-.81,4.09.42,6.43,4.06,6.43s5.78-2.34,6.58-6.43c2-10.12-13.16-10.25-10.64-23,1.22-6.23,4.56-10.32,10.18-11.17l.72-3.63h4.15Z" style="fill:#263238"></path><path d="M400.5,341.77l-1.24,6.3h-4.87l1.24-6.3ZM399.07,324l4.21-21.35h5.06L404.13,324l-3.41,14H397Z" style="fill:#263238"></path><path d="M410.75,341.77l-1.24,6.3h-4.87l1.24-6.3ZM409.33,324l4.2-21.35h5.07L414.39,324,411,338h-3.77Z" style="fill:#263238"></path><polygon points="635 311.34 616.71 412.75 502.56 412.75 520.86 311.34 635 311.34" style="opacity:0.2"></polygon><polygon points="512.49 304.54 653.83 304.54 635.54 405.95 494.2 405.95 512.49 304.54" style="fill:#fff;stroke:#263238;stroke-linecap:round;stroke-linejoin:round"></polygon><polygon points="651.7 316.36 653.83 304.54 512.49 304.54 510.36 316.36 651.7 316.36" style="fill:#263238;stroke:#263238;stroke-linecap:round;stroke-linejoin:round"></polygon><path d="M646,310.72a3.5,3.5,0,1,1-3.49-3.5A3.49,3.49,0,0,1,646,310.72Z" style="fill:#fff;stroke:#263238;stroke-linecap:round;stroke-linejoin:round"></path><path d="M527.05,354.45a11.84,11.84,0,0,1,9.71-4.88c7.57,0,9.84,5.55,8.18,14l-2.27,11.53c-1.77,9-7.22,14.88-16.22,14.88s-12-5.88-10.27-14.88l.78-4h6.14l-.86,4.38c-1,5.3.51,8.49,5.22,8.49s7.53-3.19,8.57-8.49L538.28,364c1.05-5.3-.51-8.5-5.22-8.5-3.61,0-6.45,2-7.89,6.31l-.26,1.35h-6.14l8.05-32.72H550l-1.16,5.89H531.54Z" style="fill:#263238"></path><path d="M554.46,344.69c1.77-9,7.38-14.8,16.37-14.8s12.4,5.81,10.63,14.8l-6,30.37c-1.77,9-7.39,14.88-16.47,14.88s-12.3-5.88-10.52-14.88Zm.41,30.79c-1,5.3.6,8.49,5.31,8.49s7.61-3.19,8.65-8.49L575,344.36c1.06-5.39-.5-8.58-5.3-8.58s-7.61,3.19-8.67,8.58Z" style="fill:#263238"></path><path d="M594.5,335.57,593,343.42c-.47,2.42-1.93,4-4.34,4s-3.24-1.6-2.76-4l1.55-7.85c.47-2.38,1.92-4,4.34-4S595,333.19,594.5,335.57Zm9-3.87-14.71,24.87h-1.67L601.8,331.7Zm-14.28,3.76-1.59,8.1c-.27,1.35,0,2.24,1.33,2.24s2-.89,2.22-2.24l1.6-8.1c.26-1.35-.09-2.27-1.33-2.27S589.46,334.11,589.19,335.46Zm15.7,9.38-1.54,7.82c-.47,2.41-1.89,4-4.34,4s-3.24-1.6-2.76-4l1.54-7.82c.47-2.38,1.92-4,4.33-4S605.36,342.46,604.89,344.84Zm-5.31-.1L598,352.8c-.27,1.35.08,2.27,1.32,2.27s2-.92,2.23-2.27l1.59-8.06c.26-1.35-.09-2.24-1.34-2.24S599.85,343.39,599.58,344.74Z" style="fill:#263238"></path><path d="M579.75,365.81c1-4.85,4-8,8.83-8s6.68,3.12,5.72,8l-3.23,16.41c-1,4.81-4,8-8.87,8s-6.63-3.17-5.68-8Zm.22,16.6c-.57,2.9.32,4.57,2.86,4.57s4.09-1.67,4.67-4.57l3.3-16.78c.57-2.85-.27-4.58-2.86-4.58s-4.1,1.73-4.66,4.58Z" style="fill:#263238"></path><path d="M607.09,372.93l-.63,3.22h-7.3l-2.71,13.74h-3.54l6.26-31.74h12.6l-.63,3.22h-9.07l-2.28,11.56Z" style="fill:#263238"></path><path d="M622.5,372.93l-.63,3.22h-7.3l-2.71,13.74h-3.53l6.25-31.74h12.6l-.63,3.22h-9.07l-2.27,11.56Z" style="fill:#263238"></path><polygon points="414.75 201.5 404.31 259.38 326.04 259.38 336.48 201.5 414.75 201.5" style="opacity:0.2"></polygon><polygon points="267.01 142.5 417.51 142.5 398.04 250.49 247.53 250.49 267.01 142.5" style="fill:#fff;stroke:#263238;stroke-linecap:round;stroke-linejoin:round"></polygon><polygon points="353.27 142.5 344.56 153.06 343.94 142.5 340.83 142.5 335.71 151.7 333.25 142.5 329.83 142.5 326.61 152.12 321.73 142.5 319.2 142.5 317.63 154.31 308.09 142.57 309.09 158.16 297.28 148.7 301.34 163.54 287.7 156.73 294.67 170.25 279.73 166.34 289.34 178.02 273.67 177.16 285.54 186.55 269.75 188.78 283.43 195.52 268.12 200.75 283.1 204.58 268.85 212.61 284.54 213.38 271.91 223.9 287.7 221.59 277.18 234.2 292.47 228.89 284.46 243.1 298.67 235 293.47 250.27 306.04 239.68 304.54 250.49 307.93 250.49 314.31 242.76 314.77 250.49 319.61 250.49 323.17 244.11 324.87 250.49 329.99 250.49 332.26 243.69 335.72 250.49 340.05 250.49 341.25 241.51 348.55 250.49 350.61 250.49 349.78 237.65 361.6 247.11 357.53 232.27 371.18 239.09 364.2 225.56 379.15 229.48 369.54 217.8 385.21 218.66 373.33 209.26 389.13 207.04 375.44 200.3 390.75 195.07 375.78 191.24 390.02 183.21 374.34 182.43 386.96 171.91 371.17 174.22 381.69 161.61 366.4 166.93 374.41 152.71 360.21 160.82 365.41 145.54 352.84 156.13 354.73 142.5 353.27 142.5" style="fill:#fff;stroke:#263238;stroke-linecap:round;stroke-linejoin:round"></polygon><polygon points="415.24 155.09 417.51 142.5 267.01 142.5 264.74 155.09 415.24 155.09" style="fill:#263238;stroke:#263238;stroke-linecap:round;stroke-linejoin:round"></polygon><path d="M409.18,149.08a3.73,3.73,0,1,1-3.72-3.72A3.72,3.72,0,0,1,409.18,149.08Z" style="fill:#fff;stroke:#263238;stroke-linecap:round;stroke-linejoin:round"></path><path d="M308.41,181.46c5.26,0,6.84,2.51,5.86,7.48l-.31,1.59c-.71,3.57-2.16,5.79-5.28,6.71,3.1.92,3.84,3.52,3.11,7.24l-.57,2.84c-1,5.07-4,7.92-9.27,7.92h-7.77l6.65-33.78Zm-5.79,30.35c2.75,0,4.29-1.45,4.91-4.58l.59-3c.74-3.76-.51-5-3.74-5H301.1l-2.48,12.59Zm2.05-16c3,0,4.72-1,5.42-4.49l.39-2c.59-3-.14-4.44-2.84-4.44h-3.72l-2.15,10.9Z" style="fill:#263238"></path><path d="M318.23,207.27c-.6,3,.25,4.88,3,4.88s4.27-1.84,4.87-4.88l5.08-25.81h3.53l-5.06,25.62c-1,5.12-4,8.54-9.25,8.54s-6.85-3.42-5.85-8.54l5.05-25.62h3.72Z" style="fill:#263238"></path><path d="M340.13,203.13l-2.87-21.67h3.91l2,16.6,8.58-16.6h3.57l-11.46,21.67-2.39,12.11h-3.71Z" style="fill:#263238"></path><path d="M355.94,210.56l-.92,4.68H351.4l.92-4.68Zm-1.06-13.22L358,181.46h3.76l-3.13,15.88-2.53,10.42h-2.8Z" style="fill:#263238"></path><polygon points="603.46 201.5 592.94 259.81 482.72 259.81 493.24 201.5 603.46 201.5" style="opacity:0.2"></polygon><polygon points="490.71 173.42 600.93 173.42 586.66 252.49 476.45 252.49 490.71 173.42" style="fill:#fff;stroke:#263238;stroke-linecap:round;stroke-linejoin:round"></polygon><polygon points="599.26 182.63 600.93 173.42 490.71 173.42 489.05 182.63 599.26 182.63" style="fill:#263238;stroke:#263238;stroke-linecap:round;stroke-linejoin:round"></polygon><circle cx="592.1" cy="178.23" r="2.73" style="fill:#fff;stroke:#263238;stroke-linecap:round;stroke-linejoin:round"></circle><path d="M522.42,202.81l-2.12,10.73h-2.66l4.7-23.85H525l-2.11,10.73h5.86l2.11-10.73h2.66l-4.7,23.85h-2.66l2.12-10.73Z" style="fill:#263238"></path><path d="M534.91,195.45c.71-3.65,3-6,6.63-6s5,2.35,4.3,6l-2.43,12.33c-.71,3.61-3,6-6.66,6s-5-2.39-4.28-6Zm.16,12.47c-.43,2.18.24,3.44,2.15,3.44s3.08-1.26,3.51-3.44l2.48-12.61c.43-2.15-.2-3.44-2.15-3.44s-3.08,1.29-3.5,3.44Z" style="fill:#263238"></path><path d="M548.24,213.54l4.22-21.43h-4.39l.48-2.42H560l-.48,2.42h-4.39l-4.23,21.43Z" style="fill:#263238"></path><path d="M515.24,221.91l-.12.65H512.6l.15-.79c.42-2.14-.15-3.4-2.05-3.4s-3,1.26-3.4,3.37c-1.05,5.35,6.86,5.86,5.53,12.57-.71,3.61-2.91,6-6.55,6s-4.89-2.36-4.18-6l.27-1.36h2.49l-.3,1.5c-.42,2.15.22,3.41,2.12,3.41s3.05-1.26,3.47-3.41c1.05-5.32-6.83-5.83-5.5-12.54.72-3.68,2.88-6,6.45-6S516,218.3,515.24,221.91Z" style="fill:#263238"></path><path d="M517.66,235.23,515.79,240h-2.45l9.27-23.85h3.85L526.32,240h-2.65l0-4.81Zm.79-2.28h5.32l0-13.77Z" style="fill:#263238"></path><path d="M528.4,240l4.7-23.85h2.66l-4.22,21.43h6.81l-.48,2.42Z" style="fill:#263238"></path><path d="M551,226.75l-.47,2.38h-5.83L543,237.62h7.15L549.7,240h-9.82l4.7-23.85h9.82l-.48,2.41h-7.15l-1.61,8.15Z" style="fill:#263238"></path><path d="M555.39,236.73l-.65,3.31h-2.56l.65-3.31Zm-.75-9.33,2.21-11.21h2.66L557.3,227.4l-1.79,7.36h-2Z" style="fill:#263238"></path><path d="M560.77,236.73l-.65,3.31h-2.55l.65-3.31ZM560,227.4l2.21-11.21h2.66l-2.21,11.21-1.79,7.36h-2Z" style="fill:#263238"></path></g><g id="freepik--Character--inject-2"><path d="M327.27,468.52s1.48,8.88,3.12,12.34,4.61,7.72,2.63,8.22-4.76-.5-6.74-2.63a61.34,61.34,0,0,0-7.4-7.4c-3.61-3-4.11-3.79-3.12-5.92a52.17,52.17,0,0,1,4.27-6.42Z" style="fill:#fff;stroke:#263238;stroke-linecap:round;stroke-linejoin:round"></path><path d="M332.92,489.09c-4.66-1.95-8-6.86-10.91-9.88a39,39,0,0,0-6.53-5.4c-.55,1.67.2,2.61,3.4,5.24a61.34,61.34,0,0,1,7.4,7.4C328.22,488.55,331,489.53,332.92,489.09Z" style="fill:#fff;stroke:#263238;stroke-linecap:round;stroke-linejoin:round"></path><path d="M288,391.57s-5.59,7.23-7.4,12.33-1,10.52,2.3,12.17,48.18,0,48.18,0l-11,50.64,7.24,1.81s21.87-49.82,23.35-53.44,3.78-11.18,2.63-13.15-20.06-4.11-20.06-4.11l.08-5.2-43.82.1Z" style="fill:#263238;stroke:#263238;stroke-linecap:round;stroke-linejoin:round"></path><line x1="331.59" y1="414.11" x2="334.15" y2="402.31" style="fill:none;stroke:#7a7a7a;stroke-linecap:round;stroke-linejoin:round"></line><path d="M319.42,297.42s-1.58-5.54-5.34-6.13-7.31,0-6.91,1.58.59,2.17.59,2.17-8.3.4-12.65,4.55.2,13,2.57,16.4,5.14,6.53,5.34,7.51,1.38,4.35-1,6.13-22.93,11.46-22.53,13.64,7.55,49.35,7.55,49.35h46.22S341,340.9,340,339.91s-21.14-10.28-21.14-10.28l1-5.53s6.53-.79,6.33-2.37-1.78-8.9-1.78-8.9l1.58-2.17L322,305.72v-3.17Z" style="fill:#0284C7;stroke:#263238;stroke-linecap:round;stroke-linejoin:round"></path><path d="M318.83,329.63l1-5.53s6.53-.79,6.33-2.37-1.78-8.9-1.78-8.9l1.58-2.17L322,305.72v-3.17l-2.57-5.13s-1.58-5.54-5.34-6.13-7.31,0-6.91,1.58.59,2.17.59,2.17-8.3.4-12.65,4.55.2,13,2.57,16.4,5.14,6.53,5.34,7.51,1.38,4.35-1,6.13a26.54,26.54,0,0,1-2.5,1.47c2.25,2.34,6.74,6.36,11.63,7.06,4.44.64,8.72-3.67,11.25-6.87Z" style="fill:#fff;stroke:#263238;stroke-linecap:round;stroke-linejoin:round"></path><path d="M301.83,321.54a.62.62,0,0,0,.42-.17c1.67-1.67,3.9-2.67,2.67-3.68s0-4,.56-4,2.34-.45,2.34-.89a15.55,15.55,0,0,0-2.34-3.68c-.89-1.12,4.13-5.69,5.46-6.47s-3.45.12-3.68-1.78,10.9-3.59,12.05-3.77c-.4-1.19-2-5.29-5.23-5.8-3.75-.59-7.31,0-6.91,1.58s.59,2.17.59,2.17-8.3.4-12.65,4.55.2,13,2.57,16.4C299.15,318.07,300.77,320.08,301.83,321.54Z" style="fill:#263238;stroke:#263238;stroke-linecap:round;stroke-linejoin:round"></path><path d="M307.36,315.2s-3.36-5.53-5.33-3,.59,7.11,3,7.51a4.82,4.82,0,0,0,3.76-.79l2.37,1.78" style="fill:#fff;stroke:#263238;stroke-linecap:round;stroke-linejoin:round"></path><path d="M319.75,306.52c.07.71-.18,1.31-.58,1.36s-.79-.49-.86-1.2.18-1.31.57-1.35S319.67,305.82,319.75,306.52Z" style="fill:#263238"></path><path d="M319.08,315a9.49,9.49,0,0,0,4.35.33" style="fill:none;stroke:#263238;stroke-linecap:round;stroke-linejoin:round"></path><path d="M316.52,303.87a3.77,3.77,0,0,1,4.12-1" style="fill:none;stroke:#263238;stroke-linecap:round;stroke-linejoin:round"></path><path d="M335.66,364.86l2.88,8-6.13,10.95,4.34,4.05L353,378.1a2,2,0,0,0,.81-2.43l-13.94-36.18-1.56-.46" style="fill:#0284C7;stroke:#263238;stroke-linecap:round;stroke-linejoin:round"></path><path d="M338.54,372.85a9.21,9.21,0,0,1,8.71,1" style="fill:none;stroke:#263238;stroke-linecap:round;stroke-linejoin:round"></path><path d="M330.58,378.54s-3.48.9-4,1-1.69,2.09-2.29,3-3.49,1.19-2.09,2.59,3.08-.2,3.88-.9,1.79-1.59,1.79-1.59l1.8.3a13.83,13.83,0,0,0,2.09,3.38c1.19,1.3,1.93,2.29,4.52,2s3.55-3.08,1.66-5.77S330.58,378.54,330.58,378.54Z" style="fill:#fff;stroke:#263238;stroke-linecap:round;stroke-linejoin:round"></path><path d="M333.47,378s-1.09-2-2.29-1.49-2.89,7.37-2.09,8.27,1.49-2.19,2.79-4A10.89,10.89,0,0,0,333.47,378Z" style="fill:#fff;stroke:#263238;stroke-linecap:round;stroke-linejoin:round"></path><path d="M333.47,378s-3.38,5.68-2.59,7.28,1.7.1,2.79-1.7,2.19-3.38,2-4.58S334.47,377.65,333.47,378Z" style="fill:#fff;stroke:#263238;stroke-linecap:round;stroke-linejoin:round"></path><path d="M335.76,380.24s1.9.19,1.9,1.79-3.29,4.38-4.39,4.38-.3-1.19-.3-1.19Z" style="fill:#fff;stroke:#263238;stroke-linecap:round;stroke-linejoin:round"></path><path d="M337.56,383.22s.89-.29,1,.8-2.39,3-3.68,3.29,0-1.69,0-1.69Z" style="fill:#fff;stroke:#263238;stroke-linecap:round;stroke-linejoin:round"></path><path d="M286.73,359.82l-5.18,13,6.11,9.57-2.6,4.83-18-9.15a2,2,0,0,1-.81-2.43l13.06-32.86,1.22-.85" style="fill:#0284C7;stroke:#263238;stroke-linecap:round;stroke-linejoin:round"></path><path d="M275.1,372.72a9.39,9.39,0,0,0-2.26,1.17" style="fill:none;stroke:#263238;stroke-linecap:round;stroke-linejoin:round"></path><path d="M281.55,372.85a9,9,0,0,0-4-.63" style="fill:none;stroke:#263238;stroke-linecap:round;stroke-linejoin:round"></path><path d="M285.85,380.8s-2.79,4.58-1.39,6.48,6-.6,6-.6.49.2,2.19-.6,3-3.29,2.29-5S285.85,380.8,285.85,380.8Z" style="fill:#fff;stroke:#263238;stroke-linecap:round;stroke-linejoin:round"></path><path d="M295.28,378a4.54,4.54,0,0,0,2.23,1.15c1.14.11,4.19-.55,4.79,0s.16,2.23-1.09,2.61-2.18-.06-3.59-.16-1.85-.11-1.85-.11Z" style="fill:#fff;stroke:#263238;stroke-linecap:round;stroke-linejoin:round"></path><path d="M292.58,378.3s1.46-.93,2.53-.4,1.73,4,1.73,5.32-.54,2.52-.93,2.52a1.69,1.69,0,0,1-1.33-1.06c-.27-.66-1.47-4.39-1.6-5.05A8.14,8.14,0,0,0,292.58,378.3Z" style="fill:#fff;stroke:#263238;stroke-linecap:round;stroke-linejoin:round"></path><path d="M290.32,379a5.77,5.77,0,0,1,2.93-.66c1.06.26,1.59,5.85,1.72,6.91s-.26,1.73-1.32,1.07-1.73-3.73-2.26-4.52S289.66,379.89,290.32,379Z" style="fill:#fff;stroke:#263238;stroke-linecap:round;stroke-linejoin:round"></path><path d="M287.93,380.16a2.59,2.59,0,0,1,2.39-1.2c1.46.27,2.79,5.72,3.06,6.52s-1.06,1.46-1.6,1.06a37.78,37.78,0,0,1-3.45-5.05C288.19,381.09,287.93,380.16,287.93,380.16Z" style="fill:#fff;stroke:#263238;stroke-linecap:round;stroke-linejoin:round"></path><path d="M288.57,380.41a1,1,0,0,0-1.21-.4,2.13,2.13,0,0,0-1.33,1.12c-.44,1.08,1,3,2,4.24s2.28,1.14,2.39.38A13.69,13.69,0,0,0,288.57,380.41Z" style="fill:#fff;stroke:#263238;stroke-linecap:round;stroke-linejoin:round"></path><rect x="290.32" y="369.66" width="46.53" height="29.43" style="fill:#fff;stroke:#263238;stroke-linecap:round;stroke-linejoin:round"></rect><circle cx="313.29" cy="379.99" r="3.37" style="fill:#fff;stroke:#263238;stroke-linecap:round;stroke-linejoin:round"></circle><path d="M292.41,468s-.49,12.17,1.64,16.44,5.43,7.07,7.57,2.8-1.15-15.29-1.15-17.1a26.65,26.65,0,0,0-.33-3.78l-7.73.82Z" style="fill:#fff;stroke:#263238;stroke-linecap:round;stroke-linejoin:round"></path><path d="M284.52,404.72s.65,26.31,3.12,41.28,4.77,22,4.77,22a17.67,17.67,0,0,0,5.26,0,6.6,6.6,0,0,0,3-1.81s3-51.47,3.12-55.91-.16-8.71-1.31-10-11-2.13-14.47-.16" style="fill:#263238;stroke:#263238;stroke-linecap:round;stroke-linejoin:round"></path></g></svg>